{
  "asset": { "version": "2.0", "generator": "RayTracingDemo stage7 test fixture" },
  "scene": 0,
  "scenes": [{ "nodes": [0, 2] }],
  "nodes": [
    { "name": "Parent", "translation": [1.0, 0.0, 0.0], "children": [1] },
    { "name": "Child", "translation": [0.0, 2.0, 0.0], "mesh": 0 },
    { "name": "SecondInstance", "translation": [-1.0, 0.0, 0.0], "mesh": 0 }
  ],
  "meshes": [{ "name": "TriangleShared", "primitives": [{ "attributes": { "POSITION": 0 } }] }],
  "buffers": [{ "uri": "data:application/octet-stream;base64,", "byteLength": 44 }],
  "bufferViews": [{ "buffer": 0, "byteOffset": 0, "byteLength": 36 }],
  "accessors": [{ "bufferView": 0, "componentType": 5126, "count": 3, "type": "VEC3", "min": [-0.5, 0.0, 0.0], "max": [0.5, 0.0, 1.0] }]
}
